<svg xmlns="http://www.w3.org/2000/svg" xmlns:xlink="http://www.w3.org/1999/xlink" width="152" zoomAndPan="magnify" viewBox="0 0 114 37.5" height="50" preserveAspectRatio="xMidYMid meet" version="1.0"><defs><g/><clipPath id="1cd8a317ee"><path d="M 5.78125 14 L 41.308594 14 L 41.308594 23.683594 L 5.78125 23.683594 Z M 5.78125 14 " clip-rule="nonzero"/></clipPath></defs><path fill="#99dfec" d="M 28.3125 9.253906 C 28.101562 13.183594 24.566406 13.183594 24.566406 13.183594 C 24.566406 13.183594 25.386719 11.988281 25.195312 10.460938 C 25 8.929688 23.613281 8.996094 23.613281 8.996094 C 23.613281 8.996094 22.300781 8.929688 22.101562 10.460938 C 21.898438 11.988281 22.777344 13.191406 22.777344 13.191406 C 22.777344 13.191406 19.226562 13.191406 19.03125 9.265625 C 18.839844 5.335938 23.628906 0.0078125 23.628906 0.0078125 C 23.628906 0.0078125 28.519531 5.335938 28.3125 9.253906 Z M 28.3125 9.253906 " fill-opacity="1" fill-rule="nonzero"/><g clip-path="url(#1cd8a317ee)"><path fill="#a9eadf" d="M 21.839844 19.101562 C 22.84375 20.976562 21.78125 23.214844 18.972656 23.632812 C 12.003906 24.652344 5.78125 15.582031 5.78125 15.582031 C 5.78125 15.582031 18.414062 12.726562 21.839844 19.101562 Z M 25.570312 19.101562 C 24.566406 20.976562 25.628906 23.214844 28.4375 23.632812 C 35.402344 24.652344 41.621094 15.582031 41.621094 15.582031 C 41.621094 15.582031 28.988281 12.726562 25.570312 19.101562 Z M 25.570312 19.101562 " fill-opacity="1" fill-rule="nonzero"/></g><path fill="#1ac8db" d="M 22.308594 20.316406 C 22.285156 20.726562 22.199219 21.101562 22.058594 21.4375 C 22.152344 20.851562 21.917969 20.214844 21.15625 19.90625 C 20.152344 19.503906 19.117188 20.140625 19.316406 20.84375 C 19.542969 20.238281 20.503906 20.214844 20.863281 20.582031 C 21.199219 20.925781 21.222656 21.585938 20.753906 22.085938 C 20.003906 22.90625 18.3125 22.648438 17.5625 22.332031 C 11.515625 19.789062 12.269531 8.410156 12.269531 8.410156 C 12.269531 8.410156 22.6875 13.644531 22.308594 20.316406 Z M 25.09375 20.316406 C 25.117188 20.726562 25.203125 21.101562 25.34375 21.4375 C 25.253906 20.851562 25.488281 20.214844 26.246094 19.90625 C 27.25 19.503906 28.285156 20.140625 28.085938 20.84375 C 27.859375 20.238281 26.898438 20.214844 26.539062 20.582031 C 26.207031 20.925781 26.179688 21.585938 26.648438 22.085938 C 27.402344 22.90625 29.089844 22.648438 29.84375 22.332031 C 35.886719 19.789062 35.132812 8.410156 35.132812 8.410156 C 35.132812 8.410156 24.71875 13.644531 25.09375 20.316406 Z M 25.09375 20.316406 " fill-opacity="1" fill-rule="nonzero"/><path fill="#99dfec" d="M 28.730469 12.273438 C 29.398438 11.121094 30.878906 7.726562 27.984375 3.914062 C 27.984375 3.914062 31.496094 5.460938 31.496094 9.992188 C 31.496094 10.074219 29.992188 11.3125 28.832031 12.347656 C 28.78125 12.398438 28.695312 12.332031 28.730469 12.273438 Z M 18.632812 12.273438 C 17.960938 11.121094 16.484375 7.726562 19.375 3.914062 C 19.375 3.914062 15.863281 5.460938 15.863281 9.992188 C 15.863281 10.074219 17.371094 11.3125 18.53125 12.347656 C 18.589844 12.398438 18.671875 12.332031 18.632812 12.273438 Z M 18.632812 12.273438 " fill-opacity="1" fill-rule="nonzero"/><g fill="#725c52" fill-opacity="1"><g transform="translate(51.56989, 20.414322)"><g><path d="M 6.015625 -0.640625 L 6.015625 0 L 1.125 0 L 1.125 -6.921875 L 5.875 -6.921875 L 5.875 -6.296875 L 1.859375 -6.296875 L 1.859375 -3.828125 L 5.4375 -3.828125 L 5.4375 -3.203125 L 1.859375 -3.203125 L 1.859375 -0.640625 Z M 6.015625 -0.640625 "/></g></g></g><g fill="#725c52" fill-opacity="1"><g transform="translate(59.164203, 20.414322)"><g><path d="M 6.90625 -6.921875 L 6.90625 0 L 6.3125 0 L 1.859375 -5.625 L 1.859375 0 L 1.125 0 L 1.125 -6.921875 L 1.734375 -6.921875 L 6.1875 -1.3125 L 6.1875 -6.921875 Z M 6.90625 -6.921875 "/></g></g></g><g fill="#725c52" fill-opacity="1"><g transform="translate(68.182333, 20.414322)"><g><path d="M 1.875 0.0625 C 1.476562 0.0625 1.109375 -0.0195312 0.765625 -0.1875 C 0.429688 -0.363281 0.160156 -0.613281 -0.046875 -0.9375 L 0.390625 -1.421875 C 0.765625 -0.859375 1.257812 -0.578125 1.875 -0.578125 C 2.738281 -0.578125 3.171875 -1.082031 3.171875 -2.09375 L 3.171875 -6.296875 L 0.640625 -6.296875 L 0.640625 -6.921875 L 3.890625 -6.921875 L 3.890625 -2.125 C 3.890625 -1.394531 3.71875 -0.847656 3.375 -0.484375 C 3.039062 -0.117188 2.539062 0.0625 1.875 0.0625 Z M 1.875 0.0625 "/></g></g></g><g fill="#725c52" fill-opacity="1"><g transform="translate(74.115516, 20.414322)"><g><path d="M 4.15625 0.0625 C 3.46875 0.0625 2.84375 -0.0859375 2.28125 -0.390625 C 1.726562 -0.703125 1.296875 -1.125 0.984375 -1.65625 C 0.671875 -2.195312 0.515625 -2.800781 0.515625 -3.46875 C 0.515625 -4.125 0.671875 -4.71875 0.984375 -5.25 C 1.296875 -5.789062 1.726562 -6.210938 2.28125 -6.515625 C 2.84375 -6.828125 3.46875 -6.984375 4.15625 -6.984375 C 4.84375 -6.984375 5.457031 -6.832031 6 -6.53125 C 6.550781 -6.226562 6.984375 -5.804688 7.296875 -5.265625 C 7.617188 -4.722656 7.78125 -4.125 7.78125 -3.46875 C 7.78125 -2.800781 7.617188 -2.195312 7.296875 -1.65625 C 6.984375 -1.113281 6.550781 -0.691406 6 -0.390625 C 5.457031 -0.0859375 4.84375 0.0625 4.15625 0.0625 Z M 4.15625 -0.59375 C 4.695312 -0.59375 5.1875 -0.710938 5.625 -0.953125 C 6.070312 -1.203125 6.421875 -1.546875 6.671875 -1.984375 C 6.921875 -2.429688 7.046875 -2.925781 7.046875 -3.46875 C 7.046875 -4 6.921875 -4.484375 6.671875 -4.921875 C 6.421875 -5.367188 6.070312 -5.710938 5.625 -5.953125 C 5.1875 -6.203125 4.695312 -6.328125 4.15625 -6.328125 C 3.601562 -6.328125 3.101562 -6.203125 2.65625 -5.953125 C 2.21875 -5.710938 1.867188 -5.367188 1.609375 -4.921875 C 1.359375 -4.484375 1.234375 -4 1.234375 -3.46875 C 1.234375 -2.925781 1.359375 -2.429688 1.609375 -1.984375 C 1.867188 -1.546875 2.21875 -1.203125 2.65625 -0.953125 C 3.101562 -0.710938 3.601562 -0.59375 4.15625 -0.59375 Z M 4.15625 -0.59375 "/></g></g></g><g fill="#725c52" fill-opacity="1"><g transform="translate(83.390733, 20.414322)"><g><path d="M 3.5 -2.390625 L 3.5 0 L 2.78125 0 L 2.78125 -2.390625 L 0.015625 -6.921875 L 0.796875 -6.921875 L 3.171875 -3.03125 L 5.53125 -6.921875 L 6.265625 -6.921875 Z M 3.5 -2.390625 "/></g></g></g><g fill="#725c52" fill-opacity="1"><g transform="translate(5.572608, 32.36597)"><g><path d="M 6.4375 -6.21875 L 6.4375 0 L 5 0 L 5 -2.546875 L 2.171875 -2.546875 L 2.171875 0 L 0.734375 0 L 0.734375 -6.21875 L 2.171875 -6.21875 L 2.171875 -3.765625 L 5 -3.765625 L 5 -6.21875 Z M 6.4375 -6.21875 "/></g></g></g><g fill="#725c52" fill-opacity="1"><g transform="translate(13.628264, 32.36597)"><g><path d="M 5.546875 -1.15625 L 5.546875 0 L 0.734375 0 L 0.734375 -6.21875 L 5.4375 -6.21875 L 5.4375 -5.0625 L 2.171875 -5.0625 L 2.171875 -3.703125 L 5.046875 -3.703125 L 5.046875 -2.59375 L 2.171875 -2.59375 L 2.171875 -1.15625 Z M 5.546875 -1.15625 "/></g></g></g><g fill="#725c52" fill-opacity="1"><g transform="translate(20.467133, 32.36597)"><g><path d="M 4.828125 -1.328125 L 1.9375 -1.328125 L 1.390625 0 L -0.078125 0 L 2.6875 -6.21875 L 4.109375 -6.21875 L 6.890625 0 L 5.375 0 Z M 4.375 -2.421875 L 3.390625 -4.796875 L 2.40625 -2.421875 Z M 4.375 -2.421875 "/></g></g></g><g fill="#725c52" fill-opacity="1"><g transform="translate(28.149752, 32.36597)"><g><path d="M 0.734375 -6.21875 L 2.171875 -6.21875 L 2.171875 -1.171875 L 5.296875 -1.171875 L 5.296875 0 L 0.734375 0 Z M 0.734375 -6.21875 "/></g></g></g><g fill="#725c52" fill-opacity="1"><g transform="translate(34.393544, 32.36597)"><g><path d="M 2.03125 -5.046875 L 0.03125 -5.046875 L 0.03125 -6.21875 L 5.453125 -6.21875 L 5.453125 -5.046875 L 3.46875 -5.046875 L 3.46875 0 L 2.03125 0 Z M 2.03125 -5.046875 "/></g></g></g><g fill="#725c52" fill-opacity="1"><g transform="translate(40.761679, 32.36597)"><g><path d="M 6.4375 -6.21875 L 6.4375 0 L 5 0 L 5 -2.546875 L 2.171875 -2.546875 L 2.171875 0 L 0.734375 0 L 0.734375 -6.21875 L 2.171875 -6.21875 L 2.171875 -3.765625 L 5 -3.765625 L 5 -6.21875 Z M 6.4375 -6.21875 "/></g></g></g><g fill="#725c52" fill-opacity="1"><g transform="translate(48.817335, 32.36597)"><g/></g></g><g fill="#725c52" fill-opacity="1"><g transform="translate(52.210126, 32.36597)"><g><path d="M 5.515625 0.109375 L 4.765625 -0.578125 C 4.171875 -0.117188 3.476562 0.109375 2.6875 0.109375 C 2.238281 0.109375 1.832031 0.0351562 1.46875 -0.109375 C 1.113281 -0.253906 0.832031 -0.457031 0.625 -0.71875 C 0.414062 -0.976562 0.3125 -1.269531 0.3125 -1.59375 C 0.3125 -1.976562 0.421875 -2.316406 0.640625 -2.609375 C 0.859375 -2.898438 1.207031 -3.179688 1.6875 -3.453125 C 1.457031 -3.679688 1.289062 -3.898438 1.1875 -4.109375 C 1.09375 -4.316406 1.046875 -4.535156 1.046875 -4.765625 C 1.046875 -5.066406 1.125 -5.332031 1.28125 -5.5625 C 1.445312 -5.789062 1.675781 -5.96875 1.96875 -6.09375 C 2.257812 -6.226562 2.597656 -6.296875 2.984375 -6.296875 C 3.523438 -6.296875 3.957031 -6.164062 4.28125 -5.90625 C 4.601562 -5.644531 4.765625 -5.296875 4.765625 -4.859375 C 4.765625 -4.546875 4.664062 -4.265625 4.46875 -4.015625 C 4.28125 -3.765625 3.972656 -3.523438 3.546875 -3.296875 L 4.6875 -2.234375 C 4.820312 -2.515625 4.925781 -2.835938 5 -3.203125 L 6.109375 -2.859375 C 5.984375 -2.304688 5.789062 -1.835938 5.53125 -1.453125 L 6.265625 -0.765625 Z M 2.984375 -5.34375 C 2.773438 -5.34375 2.609375 -5.289062 2.484375 -5.1875 C 2.367188 -5.082031 2.3125 -4.945312 2.3125 -4.78125 C 2.3125 -4.65625 2.34375 -4.535156 2.40625 -4.421875 C 2.46875 -4.316406 2.59375 -4.175781 2.78125 -4 C 3.082031 -4.15625 3.289062 -4.296875 3.40625 -4.421875 C 3.53125 -4.546875 3.59375 -4.6875 3.59375 -4.84375 C 3.59375 -4.988281 3.539062 -5.109375 3.4375 -5.203125 C 3.332031 -5.296875 3.179688 -5.34375 2.984375 -5.34375 Z M 2.78125 -0.96875 C 3.21875 -0.96875 3.609375 -1.09375 3.953125 -1.34375 L 2.453125 -2.75 C 2.171875 -2.582031 1.96875 -2.421875 1.84375 -2.265625 C 1.726562 -2.117188 1.671875 -1.945312 1.671875 -1.75 C 1.671875 -1.519531 1.769531 -1.332031 1.96875 -1.1875 C 2.175781 -1.039062 2.445312 -0.96875 2.78125 -0.96875 Z M 2.78125 -0.96875 "/></g></g></g><g fill="#725c52" fill-opacity="1"><g transform="translate(59.555247, 32.36597)"><g/></g></g><g fill="#725c52" fill-opacity="1"><g transform="translate(62.948038, 32.36597)"><g><path d="M 3.703125 0.109375 C 3.078125 0.109375 2.503906 -0.0234375 1.984375 -0.296875 C 1.472656 -0.578125 1.070312 -0.960938 0.78125 -1.453125 C 0.488281 -1.941406 0.34375 -2.492188 0.34375 -3.109375 C 0.34375 -3.722656 0.488281 -4.273438 0.78125 -4.765625 C 1.070312 -5.253906 1.472656 -5.632812 1.984375 -5.90625 C 2.503906 -6.175781 3.082031 -6.3125 3.71875 -6.3125 C 4.257812 -6.3125 4.742188 -6.21875 5.171875 -6.03125 C 5.609375 -5.84375 5.976562 -5.570312 6.28125 -5.21875 L 5.34375 -4.359375 C 4.925781 -4.847656 4.410156 -5.09375 3.796875 -5.09375 C 3.410156 -5.09375 3.066406 -5.007812 2.765625 -4.84375 C 2.460938 -4.675781 2.222656 -4.441406 2.046875 -4.140625 C 1.878906 -3.835938 1.796875 -3.492188 1.796875 -3.109375 C 1.796875 -2.722656 1.878906 -2.378906 2.046875 -2.078125 C 2.222656 -1.773438 2.460938 -1.539062 2.765625 -1.375 C 3.066406 -1.207031 3.410156 -1.125 3.796875 -1.125 C 4.410156 -1.125 4.925781 -1.367188 5.34375 -1.859375 L 6.28125 -1 C 5.976562 -0.644531 5.609375 -0.367188 5.171875 -0.171875 C 4.734375 0.015625 4.242188 0.109375 3.703125 0.109375 Z M 3.703125 0.109375 "/></g></g></g><g fill="#725c52" fill-opacity="1"><g transform="translate(70.337569, 32.36597)"><g><path d="M 4.828125 -1.328125 L 1.9375 -1.328125 L 1.390625 0 L -0.078125 0 L 2.6875 -6.21875 L 4.109375 -6.21875 L 6.890625 0 L 5.375 0 Z M 4.375 -2.421875 L 3.390625 -4.796875 L 2.40625 -2.421875 Z M 4.375 -2.421875 "/></g></g></g><g fill="#725c52" fill-opacity="1"><g transform="translate(78.020189, 32.36597)"><g><path d="M 4.6875 0 L 3.5 -1.734375 L 2.171875 -1.734375 L 2.171875 0 L 0.734375 0 L 0.734375 -6.21875 L 3.421875 -6.21875 C 3.972656 -6.21875 4.453125 -6.125 4.859375 -5.9375 C 5.265625 -5.75 5.578125 -5.488281 5.796875 -5.15625 C 6.015625 -4.820312 6.125 -4.421875 6.125 -3.953125 C 6.125 -3.492188 6.007812 -3.097656 5.78125 -2.765625 C 5.5625 -2.429688 5.25 -2.175781 4.84375 -2 L 6.234375 0 Z M 4.671875 -3.953125 C 4.671875 -4.304688 4.554688 -4.578125 4.328125 -4.765625 C 4.109375 -4.953125 3.78125 -5.046875 3.34375 -5.046875 L 2.171875 -5.046875 L 2.171875 -2.875 L 3.34375 -2.875 C 3.78125 -2.875 4.109375 -2.96875 4.328125 -3.15625 C 4.554688 -3.34375 4.671875 -3.609375 4.671875 -3.953125 Z M 4.671875 -3.953125 "/></g></g></g><g fill="#725c52" fill-opacity="1"><g transform="translate(85.427484, 32.36597)"><g><path d="M 5.546875 -1.15625 L 5.546875 0 L 0.734375 0 L 0.734375 -6.21875 L 5.4375 -6.21875 L 5.4375 -5.0625 L 2.171875 -5.0625 L 2.171875 -3.703125 L 5.046875 -3.703125 L 5.046875 -2.59375 L 2.171875 -2.59375 L 2.171875 -1.15625 Z M 5.546875 -1.15625 "/></g></g></g></svg>