<svg xmlns="http://www.w3.org/2000/svg" xmlns:xlink="http://www.w3.org/1999/xlink" width="152" zoomAndPan="magnify" viewBox="0 0 114 37.5" height="50" preserveAspectRatio="xMidYMid meet" version="1.0"><defs><g/><clipPath id="4ae4959d4f"><path d="M 19 1.09375 L 29 1.09375 L 29 15 L 19 15 Z M 19 1.09375 " clip-rule="nonzero"/></clipPath><clipPath id="8d3dd51151"><path d="M 5.78125 16 L 41.308594 16 L 41.308594 24.777344 L 5.78125 24.777344 Z M 5.78125 16 " clip-rule="nonzero"/></clipPath></defs><g clip-path="url(#4ae4959d4f)"><path fill="#99dfec" d="M 28.3125 10.347656 C 28.101562 14.277344 24.566406 14.277344 24.566406 14.277344 C 24.566406 14.277344 25.386719 13.082031 25.195312 11.550781 C 25 10.023438 23.613281 10.089844 23.613281 10.089844 C 23.613281 10.089844 22.300781 10.023438 22.101562 11.550781 C 21.898438 13.082031 22.777344 14.285156 22.777344 14.285156 C 22.777344 14.285156 19.226562 14.285156 19.03125 10.355469 C 18.839844 6.425781 23.628906 1.101562 23.628906 1.101562 C 23.628906 1.101562 28.519531 6.425781 28.3125 10.347656 Z M 28.3125 10.347656 " fill-opacity="1" fill-rule="nonzero"/></g><g clip-path="url(#8d3dd51151)"><path fill="#a9eadf" d="M 21.839844 20.195312 C 22.84375 22.070312 21.78125 24.308594 18.972656 24.726562 C 12.003906 25.746094 5.78125 16.675781 5.78125 16.675781 C 5.78125 16.675781 18.414062 13.816406 21.839844 20.195312 Z M 25.570312 20.195312 C 24.566406 22.070312 25.628906 24.308594 28.4375 24.726562 C 35.402344 25.746094 41.621094 16.675781 41.621094 16.675781 C 41.621094 16.675781 28.988281 13.816406 25.570312 20.195312 Z M 25.570312 20.195312 " fill-opacity="1" fill-rule="nonzero"/></g><path fill="#1ac8db" d="M 22.308594 21.410156 C 22.285156 21.816406 22.199219 22.195312 22.058594 22.527344 C 22.152344 21.945312 21.917969 21.308594 21.15625 21 C 20.152344 20.597656 19.117188 21.234375 19.316406 21.933594 C 19.542969 21.332031 20.503906 21.308594 20.863281 21.675781 C 21.199219 22.019531 21.222656 22.679688 20.753906 23.179688 C 20.003906 24 18.3125 23.742188 17.5625 23.421875 C 11.515625 20.882812 12.269531 9.503906 12.269531 9.503906 C 12.269531 9.503906 22.6875 14.738281 22.308594 21.410156 Z M 25.09375 21.410156 C 25.117188 21.816406 25.203125 22.195312 25.34375 22.527344 C 25.253906 21.945312 25.488281 21.308594 26.246094 21 C 27.25 20.597656 28.285156 21.234375 28.085938 21.933594 C 27.859375 21.332031 26.898438 21.308594 26.539062 21.675781 C 26.207031 22.019531 26.179688 22.679688 26.648438 23.179688 C 27.402344 24 29.089844 23.742188 29.84375 23.421875 C 35.886719 20.882812 35.132812 9.503906 35.132812 9.503906 C 35.132812 9.503906 24.71875 14.738281 25.09375 21.410156 Z M 25.09375 21.410156 " fill-opacity="1" fill-rule="nonzero"/><path fill="#99dfec" d="M 28.730469 13.367188 C 29.398438 12.210938 30.878906 8.820312 27.984375 5.007812 C 27.984375 5.007812 31.496094 6.554688 31.496094 11.085938 C 31.496094 11.167969 29.992188 12.40625 28.832031 13.441406 C 28.78125 13.492188 28.695312 13.425781 28.730469 13.367188 Z M 18.632812 13.367188 C 17.960938 12.210938 16.484375 8.820312 19.375 5.007812 C 19.375 5.007812 15.863281 6.554688 15.863281 11.085938 C 15.863281 11.167969 17.371094 12.40625 18.53125 13.441406 C 18.589844 13.492188 18.671875 13.425781 18.632812 13.367188 Z M 18.632812 13.367188 " fill-opacity="1" fill-rule="nonzero"/><g fill="#725c52" fill-opacity="1"><g transform="translate(45.738664, 22.648979)"><g><path d="M 4.21875 -0.4375 L 4.21875 0 L 0.796875 0 L 0.796875 -4.859375 L 4.125 -4.859375 L 4.125 -4.40625 L 1.296875 -4.40625 L 1.296875 -2.6875 L 3.8125 -2.6875 L 3.8125 -2.25 L 1.296875 -2.25 L 1.296875 -0.4375 Z M 4.21875 -0.4375 "/></g></g></g><g fill="#725c52" fill-opacity="1"><g transform="translate(51.061541, 22.648979)"><g><path d="M 4.84375 -4.859375 L 4.84375 0 L 4.421875 0 L 1.296875 -3.9375 L 1.296875 0 L 0.796875 0 L 0.796875 -4.859375 L 1.21875 -4.859375 L 4.34375 -0.921875 L 4.34375 -4.859375 Z M 4.84375 -4.859375 "/></g></g></g><g fill="#725c52" fill-opacity="1"><g transform="translate(57.382406, 22.648979)"><g><path d="M 1.3125 0.046875 C 1.03125 0.046875 0.769531 -0.0078125 0.53125 -0.125 C 0.300781 -0.25 0.113281 -0.425781 -0.03125 -0.65625 L 0.265625 -1 C 0.535156 -0.601562 0.882812 -0.40625 1.3125 -0.40625 C 1.914062 -0.40625 2.21875 -0.757812 2.21875 -1.46875 L 2.21875 -4.40625 L 0.4375 -4.40625 L 0.4375 -4.859375 L 2.71875 -4.859375 L 2.71875 -1.484375 C 2.71875 -0.984375 2.597656 -0.601562 2.359375 -0.34375 C 2.128906 -0.0820312 1.78125 0.046875 1.3125 0.046875 Z M 1.3125 0.046875 "/></g></g></g><g fill="#725c52" fill-opacity="1"><g transform="translate(61.540965, 22.648979)"><g><path d="M 2.90625 0.046875 C 2.425781 0.046875 1.988281 -0.0625 1.59375 -0.28125 C 1.207031 -0.5 0.90625 -0.796875 0.6875 -1.171875 C 0.46875 -1.546875 0.359375 -1.960938 0.359375 -2.421875 C 0.359375 -2.890625 0.46875 -3.3125 0.6875 -3.6875 C 0.90625 -4.0625 1.207031 -4.351562 1.59375 -4.5625 C 1.988281 -4.78125 2.425781 -4.890625 2.90625 -4.890625 C 3.394531 -4.890625 3.832031 -4.785156 4.21875 -4.578125 C 4.601562 -4.367188 4.90625 -4.070312 5.125 -3.6875 C 5.34375 -3.3125 5.453125 -2.890625 5.453125 -2.421875 C 5.453125 -1.960938 5.34375 -1.539062 5.125 -1.15625 C 4.90625 -0.78125 4.601562 -0.484375 4.21875 -0.265625 C 3.832031 -0.0546875 3.394531 0.046875 2.90625 0.046875 Z M 2.90625 -0.421875 C 3.289062 -0.421875 3.640625 -0.503906 3.953125 -0.671875 C 4.265625 -0.847656 4.507812 -1.085938 4.6875 -1.390625 C 4.863281 -1.703125 4.953125 -2.046875 4.953125 -2.421875 C 4.953125 -2.804688 4.863281 -3.148438 4.6875 -3.453125 C 4.507812 -3.765625 4.265625 -4.003906 3.953125 -4.171875 C 3.640625 -4.347656 3.289062 -4.4375 2.90625 -4.4375 C 2.53125 -4.4375 2.1875 -4.347656 1.875 -4.171875 C 1.5625 -4.003906 1.316406 -3.765625 1.140625 -3.453125 C 0.960938 -3.148438 0.875 -2.804688 0.875 -2.421875 C 0.875 -2.046875 0.960938 -1.703125 1.140625 -1.390625 C 1.316406 -1.085938 1.5625 -0.847656 1.875 -0.671875 C 2.1875 -0.503906 2.53125 -0.421875 2.90625 -0.421875 Z M 2.90625 -0.421875 "/></g></g></g><g fill="#725c52" fill-opacity="1"><g transform="translate(68.042025, 22.648979)"><g><path d="M 2.453125 -1.671875 L 2.453125 0 L 1.953125 0 L 1.953125 -1.671875 L 0 -4.859375 L 0.5625 -4.859375 L 2.21875 -2.125 L 3.890625 -4.859375 L 4.390625 -4.859375 Z M 2.453125 -1.671875 "/></g></g></g><g fill="#725c52" fill-opacity="1"><g transform="translate(5.011873, 34.295155)"><g><path d="M 5.140625 -4.96875 L 5.140625 0 L 4 0 L 4 -2.03125 L 1.734375 -2.03125 L 1.734375 0 L 0.59375 0 L 0.59375 -4.96875 L 1.734375 -4.96875 L 1.734375 -3 L 4 -3 L 4 -4.96875 Z M 5.140625 -4.96875 "/></g></g></g><g fill="#725c52" fill-opacity="1"><g transform="translate(11.451723, 34.295155)"><g><path d="M 4.4375 -0.921875 L 4.4375 0 L 0.59375 0 L 0.59375 -4.96875 L 4.34375 -4.96875 L 4.34375 -4.046875 L 1.734375 -4.046875 L 1.734375 -2.96875 L 4.03125 -2.96875 L 4.03125 -2.078125 L 1.734375 -2.078125 L 1.734375 -0.921875 Z M 4.4375 -0.921875 "/></g></g></g><g fill="#725c52" fill-opacity="1"><g transform="translate(16.918867, 34.295155)"><g><path d="M 3.859375 -1.0625 L 1.546875 -1.0625 L 1.109375 0 L -0.0625 0 L 2.15625 -4.96875 L 3.28125 -4.96875 L 5.5 0 L 4.296875 0 Z M 3.5 -1.9375 L 2.703125 -3.84375 L 1.921875 -1.9375 Z M 3.5 -1.9375 "/></g></g></g><g fill="#725c52" fill-opacity="1"><g transform="translate(23.060515, 34.295155)"><g><path d="M 0.59375 -4.96875 L 1.734375 -4.96875 L 1.734375 -0.9375 L 4.234375 -0.9375 L 4.234375 0 L 0.59375 0 Z M 0.59375 -4.96875 "/></g></g></g><g fill="#725c52" fill-opacity="1"><g transform="translate(28.051955, 34.295155)"><g><path d="M 1.625 -4.03125 L 0.03125 -4.03125 L 0.03125 -4.96875 L 4.359375 -4.96875 L 4.359375 -4.03125 L 2.765625 -4.03125 L 2.765625 0 L 1.625 0 Z M 1.625 -4.03125 "/></g></g></g><g fill="#725c52" fill-opacity="1"><g transform="translate(33.142799, 34.295155)"><g><path d="M 5.140625 -4.96875 L 5.140625 0 L 4 0 L 4 -2.03125 L 1.734375 -2.03125 L 1.734375 0 L 0.59375 0 L 0.59375 -4.96875 L 1.734375 -4.96875 L 1.734375 -3 L 4 -3 L 4 -4.96875 Z M 5.140625 -4.96875 "/></g></g></g><g fill="#725c52" fill-opacity="1"><g transform="translate(39.582649, 34.295155)"><g/></g></g><g fill="#725c52" fill-opacity="1"><g transform="translate(42.294977, 34.295155)"><g><path d="M 4.40625 0.078125 L 3.8125 -0.46875 C 3.332031 -0.101562 2.78125 0.078125 2.15625 0.078125 C 1.789062 0.078125 1.460938 0.0195312 1.171875 -0.09375 C 0.890625 -0.207031 0.664062 -0.367188 0.5 -0.578125 C 0.332031 -0.785156 0.25 -1.019531 0.25 -1.28125 C 0.25 -1.582031 0.332031 -1.847656 0.5 -2.078125 C 0.675781 -2.316406 0.957031 -2.546875 1.34375 -2.765625 C 1.164062 -2.941406 1.035156 -3.113281 0.953125 -3.28125 C 0.878906 -3.457031 0.84375 -3.632812 0.84375 -3.8125 C 0.84375 -4.050781 0.90625 -4.257812 1.03125 -4.4375 C 1.15625 -4.625 1.332031 -4.769531 1.5625 -4.875 C 1.800781 -4.976562 2.078125 -5.03125 2.390625 -5.03125 C 2.816406 -5.03125 3.160156 -4.925781 3.421875 -4.71875 C 3.679688 -4.507812 3.8125 -4.234375 3.8125 -3.890625 C 3.8125 -3.628906 3.734375 -3.398438 3.578125 -3.203125 C 3.421875 -3.003906 3.175781 -2.8125 2.84375 -2.625 L 3.75 -1.78125 C 3.851562 -2.007812 3.9375 -2.269531 4 -2.5625 L 4.875 -2.28125 C 4.78125 -1.84375 4.628906 -1.46875 4.421875 -1.15625 L 5.015625 -0.609375 Z M 2.390625 -4.28125 C 2.222656 -4.28125 2.085938 -4.234375 1.984375 -4.140625 C 1.890625 -4.054688 1.84375 -3.953125 1.84375 -3.828125 C 1.84375 -3.722656 1.867188 -3.625 1.921875 -3.53125 C 1.972656 -3.445312 2.078125 -3.332031 2.234375 -3.1875 C 2.472656 -3.320312 2.640625 -3.4375 2.734375 -3.53125 C 2.828125 -3.632812 2.875 -3.742188 2.875 -3.859375 C 2.875 -3.984375 2.832031 -4.082031 2.75 -4.15625 C 2.664062 -4.238281 2.546875 -4.28125 2.390625 -4.28125 Z M 2.234375 -0.78125 C 2.578125 -0.78125 2.882812 -0.878906 3.15625 -1.078125 L 1.953125 -2.1875 C 1.734375 -2.0625 1.578125 -1.9375 1.484375 -1.8125 C 1.390625 -1.6875 1.34375 -1.546875 1.34375 -1.390625 C 1.34375 -1.210938 1.421875 -1.066406 1.578125 -0.953125 C 1.742188 -0.835938 1.960938 -0.78125 2.234375 -0.78125 Z M 2.234375 -0.78125 "/></g></g></g><g fill="#725c52" fill-opacity="1"><g transform="translate(48.166822, 34.295155)"><g/></g></g><g fill="#725c52" fill-opacity="1"><g transform="translate(50.87915, 34.295155)"><g><path d="M 2.96875 0.078125 C 2.457031 0.078125 2 -0.03125 1.59375 -0.25 C 1.1875 -0.46875 0.863281 -0.769531 0.625 -1.15625 C 0.394531 -1.550781 0.28125 -1.992188 0.28125 -2.484375 C 0.28125 -2.972656 0.394531 -3.410156 0.625 -3.796875 C 0.863281 -4.191406 1.1875 -4.5 1.59375 -4.71875 C 2 -4.9375 2.457031 -5.046875 2.96875 -5.046875 C 3.40625 -5.046875 3.796875 -4.96875 4.140625 -4.8125 C 4.484375 -4.664062 4.773438 -4.453125 5.015625 -4.171875 L 4.28125 -3.484375 C 3.945312 -3.878906 3.53125 -4.078125 3.03125 -4.078125 C 2.71875 -4.078125 2.441406 -4.007812 2.203125 -3.875 C 1.960938 -3.738281 1.773438 -3.546875 1.640625 -3.296875 C 1.503906 -3.054688 1.4375 -2.785156 1.4375 -2.484375 C 1.4375 -2.171875 1.503906 -1.894531 1.640625 -1.65625 C 1.773438 -1.414062 1.960938 -1.226562 2.203125 -1.09375 C 2.441406 -0.957031 2.71875 -0.890625 3.03125 -0.890625 C 3.53125 -0.890625 3.945312 -1.085938 4.28125 -1.484375 L 5.015625 -0.796875 C 4.773438 -0.515625 4.476562 -0.296875 4.125 -0.140625 C 3.78125 0.00390625 3.394531 0.078125 2.96875 0.078125 Z M 2.96875 0.078125 "/></g></g></g><g fill="#725c52" fill-opacity="1"><g transform="translate(56.786498, 34.295155)"><g><path d="M 3.859375 -1.0625 L 1.546875 -1.0625 L 1.109375 0 L -0.0625 0 L 2.15625 -4.96875 L 3.28125 -4.96875 L 5.5 0 L 4.296875 0 Z M 3.5 -1.9375 L 2.703125 -3.84375 L 1.921875 -1.9375 Z M 3.5 -1.9375 "/></g></g></g><g fill="#725c52" fill-opacity="1"><g transform="translate(62.928147, 34.295155)"><g><path d="M 3.75 0 L 2.796875 -1.390625 L 1.734375 -1.390625 L 1.734375 0 L 0.59375 0 L 0.59375 -4.96875 L 2.734375 -4.96875 C 3.171875 -4.96875 3.550781 -4.894531 3.875 -4.75 C 4.207031 -4.601562 4.457031 -4.394531 4.625 -4.125 C 4.800781 -3.851562 4.890625 -3.53125 4.890625 -3.15625 C 4.890625 -2.789062 4.800781 -2.472656 4.625 -2.203125 C 4.445312 -1.941406 4.195312 -1.738281 3.875 -1.59375 L 4.984375 0 Z M 3.734375 -3.15625 C 3.734375 -3.4375 3.640625 -3.648438 3.453125 -3.796875 C 3.273438 -3.953125 3.015625 -4.03125 2.671875 -4.03125 L 1.734375 -4.03125 L 1.734375 -2.296875 L 2.671875 -2.296875 C 3.015625 -2.296875 3.273438 -2.367188 3.453125 -2.515625 C 3.640625 -2.671875 3.734375 -2.882812 3.734375 -3.15625 Z M 3.734375 -3.15625 "/></g></g></g><g fill="#725c52" fill-opacity="1"><g transform="translate(68.84969, 34.295155)"><g><path d="M 4.4375 -0.921875 L 4.4375 0 L 0.59375 0 L 0.59375 -4.96875 L 4.34375 -4.96875 L 4.34375 -4.046875 L 1.734375 -4.046875 L 1.734375 -2.96875 L 4.03125 -2.96875 L 4.03125 -2.078125 L 1.734375 -2.078125 L 1.734375 -0.921875 Z M 4.4375 -0.921875 "/></g></g></g></svg>